<svg id="following_2" xmlns="http://www.w3.org/2000/svg" width="43.677" height="38.619" viewBox="0 0 43.677 38.619">
  <g id="store" transform="translate(-1564.863 -653.741)">
    <path id="패스_15" data-name="패스 15" d="M1569.42,653.6h27.712a4.063,4.063,0,0,1,3.288,1.536l4.358,5.973c1.549,2.124-.3,4.835-3.3,4.829l-35.982-.067c-2.917-.005-4.763-2.6-3.359-4.714l3.912-5.906A4.024,4.024,0,0,1,1569.42,653.6Z" transform="translate(3.203 0.141)" fill="#fff"/>
    <path id="패스_16" data-name="패스 16" d="M1588.5,780.219v10.754c0,2.254,2.532,4.08,5.656,4.08h28.652c3.124,0,5.656-1.827,5.656-4.08V780.143c0-.836-.939-1.514-2.1-1.514h-1.131c-1.156,0-2.094.675-2.1,1.509l-.025,6.478c0,.833-.938,1.507-2.092,1.509l-24.478.051c-1.161,0-2.1-.676-2.1-1.513v-6.439c0-.833-.933-1.51-2.088-1.513l-1.75,0C1589.442,778.7,1588.5,779.382,1588.5,780.219Z" transform="translate(-21.782 -102.694)" fill="#fff"/>
  </g>
  <text id="Buy" transform="translate(12.17 25.859)" fill="#fff" font-size="12" font-family="HelveticaNeueLTStd-Lt, Helvetica Neue LT Std"><tspan x="0" y="0">Buy</tspan></text>
</svg>
