<svg id="구성_요소_16_1" data-name="구성 요소 16 – 1" xmlns="http://www.w3.org/2000/svg" width="50" height="43.244" viewBox="0 0 50 43.244">
  <path id="패스_18" data-name="패스 18" d="M1804.2,480.029c-8.181,0-14.812,4.591-14.812,10.255a7.947,7.947,0,0,0,1.952,5.092,6.969,6.969,0,0,1-4,2.746.546.546,0,0,0-.037,1.088,12.253,12.253,0,0,0,8.494-.478,19.6,19.6,0,0,0,8.4,1.808c8.18,0,14.812-4.591,14.812-10.255S1812.382,480.029,1804.2,480.029Z" transform="translate(-1778.007 -480.029)" fill="#fff"/>
  <text id="To.Coca" transform="translate(0 40.244)" fill="#fff" font-size="13" font-family="HelveticaNeueLTStd-MdIt, Helvetica Neue LT Std" font-weight="500" font-style="italic"><tspan x="0" y="0">To.Coca</tspan></text>
</svg>
