<svg xmlns="http://www.w3.org/2000/svg" width="30.028" height="31.907" viewBox="0 0 30.028 31.907">
  <path id="Icon_awesome-comment" data-name="Icon awesome-comment" d="M15.014,3.125A14.913,14.913,0,0,1,30.028,17.939a14.607,14.607,0,0,1-3.343,9.309A19.172,19.172,0,0,0,29.9,34.07a.66.66,0,0,1,.088.62.466.466,0,0,1-.428.342,12.173,12.173,0,0,1-8.246-3.661,15.118,15.118,0,0,1-6.3,1.382A14.913,14.913,0,0,1,0,17.939,14.913,14.913,0,0,1,15.014,3.125Z" transform="translate(0 -3.125)" fill="#fff"/>
</svg>
