<svg xmlns="http://www.w3.org/2000/svg" width="18.876" height="15.678" viewBox="0 0 18.876 15.678">
  <g id="Group_23" data-name="Group 23" transform="translate(-889.002 -1460.525)">
    <path id="Path_33" data-name="Path 33" d="M-577.6,438.682c-4.326,0-7.845,3.124-7.845,6.962a6.359,6.359,0,0,0,1.023,3.439.44.44,0,0,1,.014.45,4.508,4.508,0,0,1-2.422,2.165,4.982,4.982,0,0,0,4.311-.334.437.437,0,0,1,.223-.061h0a.429.429,0,0,1,.23.065,8.5,8.5,0,0,0,4.468,1.239c4.326,0,7.844-3.124,7.844-6.962S-573.28,438.682-577.6,438.682Z" transform="translate(1476.755 1022.72)" fill="#080808"/>
    <path id="Path_34" data-name="Path 34" d="M-571.448,440.085a9.434,9.434,0,0,0-12.3,0,7.4,7.4,0,0,0-2.573,5.559,7.212,7.212,0,0,0,1.018,3.679,3.551,3.551,0,0,1-1.853,1.558.855.855,0,0,0-.544.517.853.853,0,0,0,.5,1.1,5.872,5.872,0,0,0,4.895-.25,9.388,9.388,0,0,0,4.7,1.237,9.191,9.191,0,0,0,6.155-2.279,7.358,7.358,0,0,0,.837-.838A7.294,7.294,0,0,0-571.448,440.085Zm-6.156,12.522a8.5,8.5,0,0,1-4.468-1.239.429.429,0,0,0-.23-.065h0a.437.437,0,0,0-.223.061,4.982,4.982,0,0,1-4.311.334,4.508,4.508,0,0,0,2.422-2.165.44.44,0,0,0-.014-.45,6.359,6.359,0,0,1-1.023-3.439c0-3.839,3.52-6.962,7.845-6.962s7.844,3.124,7.844,6.962S-573.279,452.607-577.6,452.607Z" transform="translate(1476.755 1022.72)" fill="#fff"/>
  </g>
</svg>
