<svg xmlns="http://www.w3.org/2000/svg" width="17.348" height="15.729" viewBox="0 0 17.348 15.729">
  <g id="Group_23" data-name="Group 23" transform="translate(262 -1419)">
    <path id="Path_34" data-name="Path 34" d="M-381.761,443.265a5.133,5.133,0,0,1,1.612-1.447,4.59,4.59,0,0,1,5.394.677,5.235,5.235,0,0,1,1.653,3.884,8.177,8.177,0,0,1-.648,3.007,12.827,12.827,0,0,1-4.958,6,14.563,14.563,0,0,1-2.834,1.521.624.624,0,0,1-.569-.035,20.954,20.954,0,0,1-5.505-4.146,10.244,10.244,0,0,1-2.7-5.017,5.389,5.389,0,0,1,1.6-5.274,4.624,4.624,0,0,1,6.626.419C-381.988,442.986-381.884,443.114-381.761,443.265Z" transform="translate(128.45 977.765)" fill="#fff"/>
    <path id="Path_33" data-name="Path 33" d="M-382.866,443.007a4.48,4.48,0,0,1,1.407-1.263,4.006,4.006,0,0,1,4.708.591,4.57,4.57,0,0,1,1.443,3.39,7.137,7.137,0,0,1-.565,2.624,11.2,11.2,0,0,1-4.327,5.241,12.712,12.712,0,0,1-2.473,1.328.545.545,0,0,1-.5-.031,18.29,18.29,0,0,1-4.805-3.619,8.941,8.941,0,0,1-2.357-4.379,4.7,4.7,0,0,1,1.393-4.6,4.036,4.036,0,0,1,5.784.366C-383.064,442.763-382.974,442.875-382.866,443.007Z" transform="translate(129.553 978.765)" fill="#db1158"/>
  </g>
</svg>
