<svg xmlns="http://www.w3.org/2000/svg" width="21.207" height="18.624" viewBox="0 0 21.207 18.624">
  <g id="구성_요소_14_2" data-name="구성 요소 14 – 2" transform="translate(0.5 0.5)">
    <path id="Icon_awesome-heart" data-name="Icon awesome-heart" d="M18.048,4.318a5.339,5.339,0,0,0-7.285.531l-.769.793-.769-.793A5.339,5.339,0,0,0,1.94,4.318a5.606,5.606,0,0,0-.387,8.117l7.555,7.8a1.224,1.224,0,0,0,1.769,0l7.555-7.8A5.6,5.6,0,0,0,18.048,4.318Z" transform="translate(0.11 -3.055)" fill="red" opacity="0"/>
    <path id="Icon_feather-heart" data-name="Icon feather-heart" d="M21.875,7.8a5.317,5.317,0,0,0-7.521,0L13.33,8.829,12.3,7.8a5.318,5.318,0,1,0-7.521,7.521L5.809,16.35,13.33,23.87,20.85,16.35l1.025-1.025A5.317,5.317,0,0,0,21.875,7.8Z" transform="translate(-3.226 -6.246)" fill="none" stroke="#000" stroke-linecap="round" stroke-linejoin="round" stroke-width="1"/>
  </g>
</svg>
