<svg xmlns="http://www.w3.org/2000/svg" width="84.421" height="80.884" viewBox="0 0 84.421 80.884">
  <defs>
    <style>
      .cls-1 {
        fill: #dcf3e5;
        stroke: #000;
        stroke-width: 2px;
      }
    </style>
  </defs>
  <g id="Group_15674" data-name="Group 15674" transform="translate(1.094 1.024)">
    <path id="Path_29949" data-name="Path 29949" class="cls-1" d="M543.681,368.842a4.9,4.9,0,0,0,.236-.565l4.128-10-10.387-5.3-.289,1.031-23.337-35.714c-2.716-4.124-9.309-5.98-14.846-4.254l-17.521,5.451L471.1,316.482,466.948,326.5a6,6,0,0,0,.383,6.367l29.078,44.445c2.716,4.124,9.313,6,14.85,4.271l26.658-8.3a9.1,9.1,0,0,0,5.727-4.446Z" transform="translate(-466.213 -303.392)"/>
    <path id="Path_29950" data-name="Path 29950" class="cls-1" d="M496.059,370.2l-20.793-31.819-8.256-12.763c-2.717-4.124-.334-8.773,5.249-10.51l26.662-8.289c5.537-1.724,12.191.18,14.846,4.256l29.125,44.562c2.716,4.124.318,8.776-5.249,10.51l-26.662,8.288C505.369,376.181,498.715,374.276,496.059,370.2Z" transform="translate(-461.727 -306.183)"/>
    <path id="Path_29951" data-name="Path 29951" d="M509.042,327.507a14.1,14.1,0,0,1-7.034.412,9.111,9.111,0,0,1-5.51-3.229,6.031,6.031,0,0,1-1.526-3.715,5.233,5.233,0,0,1,2.82-4.523,13.709,13.709,0,0,1,7.049-2.1,10.041,10.041,0,0,1,8.1,3.038,6.109,6.109,0,0,1,1.929,4.5,5.745,5.745,0,0,1-3.716,4.731C510.485,326.942,509.733,327.208,509.042,327.507Z" transform="translate(-472.93 -303.036)"/>
    <path id="Path_29952" data-name="Path 29952" d="M493.6,351.115a14.186,14.186,0,0,1-7.034.412,9.084,9.084,0,0,1-5.494-3.233,6.032,6.032,0,0,1-1.527-3.715,5.209,5.209,0,0,1,2.806-4.519,13.709,13.709,0,0,1,7.049-2.1,10.082,10.082,0,0,1,8.117,3.034,6.263,6.263,0,0,1,1.93,4.5,5.764,5.764,0,0,1-3.731,4.736C495.048,350.55,494.311,350.812,493.6,351.115Z" transform="translate(-436.113 -293.897)"/>
    <path id="Path_29953" data-name="Path 29953" d="M508.319,331.522l-19.145,5.952-2.574-3.952,19.141-5.967Z" transform="translate(-454.765 -297.911)"/>
  </g>
</svg>
